<svg width="41" height="55" viewBox="0 0 41 55" fill="none" xmlns="http://www.w3.org/2000/svg">
            <path fill-rule="evenodd" clip-rule="evenodd" d="M30.9894 35.4143C36.1586 35.4143 40.3496 39.6048 40.3496 44.7745C40.3496 49.9436 36.1591 54.1347 30.9894 54.1347C25.8203 54.1347 21.6293 49.9442 21.6293 44.7745C21.6293 39.6053 25.8197 35.4143 30.9894 35.4143ZM11.2538 3.10827C11.2538 2.4257 11.4601 2.21994 12.1422 2.21994H21.0271C21.7097 2.21994 21.9155 2.42622 21.9155 3.10827C21.9155 4.45671 20.1383 3.69162 20.1383 6.06992C20.1383 20.1695 21.1102 15.4452 22.8038 22.0626C17.713 22.4861 15.5425 27.9859 8.29167 27.9859C9.18523 26.123 10.1054 22.7055 10.8444 20.4692C13.5648 12.2324 13.0305 15.4411 13.0305 6.06992C13.0305 3.69162 11.2533 4.45671 11.2533 3.10827H11.2538ZM9.18053 2.81216C9.18053 5.89758 10.9577 4.76274 10.9577 6.36603C10.9577 15.8437 11.4288 12.3849 8.4003 21.2824C7.59604 23.6445 0 45.2508 0 46.6441C0 51.3072 6.15204 50.198 8.88494 50.198H21.2324C20.3378 48.5921 19.8275 46.7428 19.8275 44.7745C19.8275 39.2909 23.7825 34.7307 28.995 33.7906C27.7014 28.4152 22.2121 16.9864 22.2121 13.1782V6.36655C22.2121 4.67709 23.9893 6.10387 23.9893 2.81268C23.9893 -0.943296 17.7678 0.147149 12.4388 0.147149C10.5906 0.147149 9.18105 0.994751 9.18105 2.81268L9.18053 2.81216ZM20.3252 28.236C20.8287 28.236 21.2371 28.6444 21.2371 29.1479C21.2371 29.6513 20.8287 30.0597 20.3252 30.0597C19.8218 30.0597 19.4134 29.6513 19.4134 29.1479C19.4134 28.6444 19.8218 28.236 20.3252 28.236ZM14.3194 32.5905C14.8229 32.5905 15.2313 32.9989 15.2313 33.5024C15.2313 34.0058 14.8229 34.4142 14.3194 34.4142C13.816 34.4142 13.4076 34.0058 13.4076 33.5024C13.4076 32.9989 13.816 32.5905 14.3194 32.5905ZM9.57535 39.5996C10.0788 39.5996 10.4872 40.008 10.4872 40.5114C10.4872 41.0148 10.0788 41.4232 9.57535 41.4232C9.0719 41.4232 8.66351 41.0148 8.66351 40.5114C8.66351 40.008 9.0719 39.5996 9.57535 39.5996ZM17.938 36.1606C18.4415 36.1606 18.8499 36.569 18.8499 37.0724C18.8499 37.5759 18.4415 37.9843 17.938 37.9843C17.4346 37.9843 17.0262 37.5759 17.0262 37.0724C17.0262 36.569 17.4346 36.1606 17.938 36.1606ZM34.6029 41.1605C34.8922 41.4499 34.8922 41.923 34.6029 42.2123L32.0412 44.774L34.6034 47.3361C34.8927 47.6254 34.8927 48.0986 34.6034 48.3879C34.3141 48.6772 33.8409 48.6772 33.5516 48.3879L30.9894 45.8258L28.4273 48.3879C28.138 48.6772 27.6648 48.6772 27.3755 48.3879C27.0862 48.0986 27.0862 47.6254 27.3755 47.3361L29.9376 44.774L27.376 42.2123C27.0867 41.923 27.0867 41.4499 27.376 41.1605C27.6654 40.8712 28.1385 40.8712 28.4278 41.1605L30.9894 43.7222L33.5511 41.1605C33.8404 40.8712 34.3135 40.8712 34.6029 41.1605ZM15.2072 13.0476C15.7107 13.0476 16.1191 13.456 16.1191 13.9595C16.1191 14.4629 15.7107 14.8713 15.2072 14.8713C14.7038 14.8713 14.2954 14.4629 14.2954 13.9595C14.2954 13.456 14.7038 13.0476 15.2072 13.0476ZM18.2138 19.2921C18.7172 19.2921 19.1256 19.7005 19.1256 20.2039C19.1256 20.7074 18.7172 21.1158 18.2138 21.1158C17.7103 21.1158 17.3019 20.7074 17.3019 20.2039C17.3019 19.7005 17.7103 19.2921 18.2138 19.2921Z" fill="#0A6738"/>
            </svg>