<svg width="75" height="75" viewBox="0 0 75 75" fill="none" xmlns="http://www.w3.org/2000/svg">
            <path d="M37.5001 3.99773C32.9765 3.99773 28.5891 4.88325 24.4601 6.62972C20.4709 8.31745 16.8879 10.733 13.8104 13.8105C10.733 16.8879 8.3171 20.4708 6.62985 24.4602C4.88337 28.5892 3.99791 32.9764 3.99791 37.5001C3.99791 42.0237 4.88337 46.4109 6.62985 50.5399C8.3171 54.5294 10.733 58.1122 13.8104 61.1898C16.8879 64.267 20.4709 66.6829 24.4601 68.3704C28.5891 70.1166 32.9765 71.0022 37.5001 71.0022C42.0237 71.0022 46.4109 70.1167 50.54 68.3704C54.5297 66.6829 58.1126 64.267 61.19 61.1898C64.2669 58.1122 66.6831 54.5294 68.3702 50.5399C70.1167 46.4109 71.0022 42.0237 71.0022 37.5001C71.0022 32.9764 70.1167 28.5892 68.3702 24.4602C66.6831 20.4708 64.2669 16.8879 61.19 13.8105C58.1126 10.733 54.5297 8.31745 50.54 6.62972C46.4109 4.88325 42.0237 3.99773 37.5001 3.99773ZM37.5001 75C32.4384 75 27.5273 74.0082 22.9027 72.0524C18.437 70.1634 14.4268 67.4597 10.9835 64.0167C7.54023 60.5734 4.83664 56.5631 2.94778 52.0975C0.991764 47.4728 0 42.5618 0 37.5001C0 32.4385 0.991764 27.5273 2.94778 22.9028C4.83666 18.4371 7.54023 14.4268 10.9835 10.9836C14.4268 7.54045 18.437 4.83651 22.9027 2.94796C27.5273 0.992249 32.4384 0 37.5001 0C42.5617 0 47.4727 0.992249 52.0975 2.94796C56.5633 4.83651 60.5731 7.54045 64.0169 10.9836C67.4595 14.4268 70.1634 18.4371 72.0526 22.9028C74.0083 27.5273 74.9999 32.4385 74.9999 37.5001C74.9999 42.5618 74.0083 47.4728 72.0526 52.0975C70.1634 56.5631 67.4595 60.5734 64.0169 64.0167C60.5731 67.4597 56.5633 70.1634 52.0975 72.0524C47.4727 74.0082 42.5617 75 37.5001 75ZM37.5001 6.40851C33.3023 6.40851 29.2306 7.23048 25.3978 8.85165C21.6955 10.4171 18.3704 12.6593 15.5148 15.515C12.6591 18.3706 10.4172 21.6956 8.85124 25.398C7.23012 29.2307 6.40809 33.3024 6.40809 37.5001C6.40809 41.6979 7.23012 45.7697 8.85124 49.6024C10.4172 53.3045 12.6591 56.6299 15.5148 59.4851C18.3704 62.3408 21.6955 64.5828 25.3978 66.1488C29.2306 67.7699 33.3022 68.5918 37.5001 68.5918C41.6978 68.5918 45.7697 67.7699 49.6024 66.1488C53.3042 64.5828 56.6299 62.3408 59.4849 59.4851C62.3405 56.6299 64.5828 53.3045 66.1489 49.6024C67.7701 45.7696 68.592 41.6979 68.592 37.5001C68.592 33.3024 67.7701 29.2307 66.1489 25.398C64.5829 21.6957 62.3406 18.3706 59.4849 15.515C56.6299 12.6593 53.3042 10.4171 49.6024 8.85165C45.7697 7.23048 41.6978 6.40851 37.5001 6.40851ZM37.5001 69.8144C33.138 69.8144 28.9059 68.9601 24.9216 67.2746C21.0736 65.647 17.6178 63.3171 14.6504 60.3498C11.6829 57.3822 9.35297 53.9265 7.72534 50.0785C6.04013 46.0943 5.18565 41.8621 5.18565 37.5001C5.18565 33.1379 6.04013 28.906 7.72534 24.9217C9.35297 21.0739 11.6829 17.6181 14.6504 14.6504C17.6178 11.6827 21.0736 9.35286 24.9216 7.72567C28.9059 6.04036 33.138 5.18601 37.5001 5.18601C41.8621 5.18601 46.0943 6.04036 50.0785 7.72567C53.9265 9.35283 57.3823 11.6827 60.3501 14.6504C63.3172 17.6181 65.6471 21.0739 67.2748 24.9217C68.9602 28.906 69.8145 33.1379 69.8145 37.5001C69.8145 41.8621 68.9602 46.0943 67.2748 50.0785C65.6471 53.9265 63.3172 57.3822 60.3501 60.3498C57.3823 63.3171 53.9266 65.647 50.0785 67.2746C46.0943 68.9601 41.8622 69.8144 37.5001 69.8144ZM51.9348 14.9478C50.3668 18.6536 50.7966 23.4939 48.2703 28.3423C46.9243 30.9251 44.0541 32.6335 41.1445 32.7549C39.868 32.8081 38.5806 32.5196 37.4341 31.9564C37.5264 31.7944 37.6136 31.6263 37.6935 31.4553C38.4503 29.8311 38.6186 27.8653 38.1705 25.9924C41.4791 22.3725 44.5758 20.27 44.5758 20.27C44.5758 20.27 41.362 21.4001 37.8302 24.8836C37.2414 23.314 36.2263 21.8378 34.8674 20.5817C35.3939 19.7645 36.034 19.0175 36.7481 18.3574C39.9987 15.3537 44.2024 14.6085 51.9348 14.9478H51.9348ZM19.46 17.7584C21.0002 21.3989 20.5782 26.1533 23.0597 30.9159C24.3821 33.4531 27.2013 35.1313 30.0597 35.2505C32.018 35.3321 34.0023 34.5952 35.4467 33.2895C36.4102 34.4125 36.924 35.9809 36.924 35.9809L37.829 35.2981C37.3081 34.3409 36.7388 33.4281 36.1435 32.564C36.048 32.4257 35.952 32.2884 35.8553 32.1525C31.8048 26.4603 26.6887 22.9862 26.6887 22.9862C26.6887 22.9862 32.2734 24.9504 36.7504 31.7045C36.8564 31.5256 36.9539 31.3411 37.0423 31.1515C37.8254 29.4724 37.8839 27.4989 37.3553 25.7232C36.8268 23.947 35.739 22.3652 34.3781 21.1075C31.1853 18.1571 27.0556 17.4251 19.46 17.7584V17.7584ZM18.6161 49.4696H18.5829L15.9744 41.5515H14.3682L17.7797 51.1292H19.4258L22.8374 41.5515H21.2246L18.6161 49.4696H18.6161ZM23.8928 51.1292H29.9726V49.8415H25.3795V46.8747H29.727V45.627H25.3795V42.8393H29.9726V41.5515H23.8928V51.1292V51.1292ZM35.7738 47.3788H38.2824V47.5383C38.278 48.0204 38.1641 48.4442 37.9406 48.8092C37.7171 49.1743 37.4073 49.4589 37.0115 49.6623C36.6153 49.8659 36.1588 49.9674 35.641 49.9674C35.0345 49.9674 34.5105 49.8203 34.0679 49.5261C33.6253 49.2318 33.2835 48.8092 33.0424 48.2583C32.8013 47.7074 32.6806 47.0517 32.6806 46.2906V46.2838C32.6806 45.5362 32.7977 44.8957 33.0324 44.3624C33.2671 43.8291 33.6041 43.4209 34.0447 43.1379C34.4849 42.8544 35.0082 42.7129 35.6143 42.7129C36.2384 42.7129 36.7636 42.8656 37.1906 43.171C37.6176 43.4761 37.9306 43.9055 38.1297 44.4587L38.1565 44.5315H39.6897L39.6633 44.4188C39.5306 43.8391 39.2871 43.3213 38.9329 42.8656C38.5791 42.4099 38.1233 42.0505 37.5656 41.787C37.0083 41.5239 36.3578 41.392 35.6143 41.392C34.7071 41.392 33.9195 41.5911 33.2515 41.9893C32.5835 42.3878 32.0677 42.9519 31.7049 43.682C31.3421 44.4119 31.1607 45.2815 31.1607 46.2906V46.297C31.1607 47.3236 31.3432 48.2099 31.7083 48.9555C32.0733 49.7011 32.5898 50.276 33.2583 50.681C33.9263 51.086 34.7159 51.2883 35.6278 51.2883C36.4949 51.2883 37.2361 51.1236 37.8511 50.7938C38.4663 50.4644 38.9372 49.9898 39.2647 49.3701C39.5921 48.7509 39.756 48.0096 39.756 47.1465V46.1642H35.7738V47.3788ZM43.2482 47.3456L44.6742 43.1379H44.7074L46.1299 47.3456H43.2482ZM45.0924 41.5515H43.8846L40.3997 51.1292H41.9665L42.8436 48.5406H46.5341L47.4088 51.1292H48.9751L45.4974 41.5515H45.0924ZM56.3691 41.5515V48.6202H56.3277L51.4047 41.5515H50.0306V51.1292H51.511V44.0406H51.5462L56.4758 51.1292H57.8493V41.5515H56.3691ZM29.327 55.3758H29.3131L27.9762 56.3064V55.6732L29.32 54.7073H29.9359V59.757H29.3269V55.3758H29.327ZM33.6365 59.0414C33.8196 58.8746 33.9596 58.6372 34.0567 58.329C34.1534 58.0211 34.2018 57.6561 34.2018 57.2339V57.2267C34.2018 56.8046 34.1534 56.4399 34.0567 56.1333C33.9596 55.8267 33.8196 55.5904 33.6365 55.4245C33.4534 55.259 33.2335 55.1762 32.9768 55.1762C32.7202 55.1762 32.5011 55.259 32.319 55.4245C32.1371 55.5904 31.9983 55.8267 31.9026 56.1333C31.807 56.4399 31.7591 56.8046 31.7591 57.2267V57.2339C31.7591 57.6561 31.807 58.0211 31.9026 58.329C31.9983 58.6372 32.1371 58.8746 32.319 59.0414C32.5011 59.2081 32.7202 59.2916 32.9768 59.2916C33.2336 59.2916 33.4534 59.2081 33.6365 59.0414ZM31.9813 59.5223C31.7049 59.31 31.4931 59.0094 31.3462 58.6196C31.1992 58.2298 31.1257 57.7681 31.1257 57.2339V57.2267C31.1257 56.6927 31.1992 56.2305 31.3462 55.8411C31.4931 55.4513 31.7049 55.1511 31.9813 54.94C32.2578 54.7289 32.5894 54.6233 32.9768 54.6233C33.3642 54.6233 33.6964 54.7289 33.9743 54.94C34.2517 55.1511 34.4649 55.4513 34.6128 55.8411C34.7611 56.2305 34.835 56.6927 34.835 57.2267V57.2339C34.835 57.7681 34.7611 58.2298 34.6128 58.6196C34.4649 59.0094 34.2517 59.31 33.9743 59.5223C33.6964 59.7346 33.3642 59.8409 32.9768 59.8409C32.5894 59.8409 32.2578 59.7346 31.9813 59.5223ZM37.983 59.0414C38.1661 58.8746 38.306 58.6372 38.4028 58.329C38.4995 58.0211 38.5479 57.6561 38.5479 57.2339V57.2267C38.5479 56.8046 38.4995 56.4399 38.4028 56.1333C38.306 55.8267 38.1661 55.5904 37.983 55.4245C37.7999 55.259 37.58 55.1762 37.3234 55.1762C37.0667 55.1762 36.8472 55.259 36.6653 55.4245C36.4834 55.5904 36.3447 55.8267 36.2492 56.1333C36.1532 56.4399 36.1056 56.8046 36.1056 57.2267V57.2339C36.1056 57.6561 36.1532 58.0211 36.2492 58.329C36.3447 58.6372 36.4834 58.8746 36.6653 59.0414C36.8472 59.2081 37.0667 59.2916 37.3234 59.2916C37.58 59.2916 37.7999 59.2081 37.983 59.0414ZM36.3275 59.5223C36.0512 59.31 35.8394 59.0094 35.6926 58.6196C35.5455 58.2298 35.4719 57.7681 35.4719 57.2339V57.2267C35.4719 56.6927 35.5455 56.2305 35.6926 55.8411C35.8393 55.4513 36.0512 55.1511 36.3275 54.94C36.6041 54.7289 36.936 54.6233 37.3234 54.6233C37.7104 54.6233 38.043 54.7289 38.3204 54.94C38.5983 55.1511 38.8109 55.4513 38.9593 55.8411C39.1072 56.2305 39.1816 56.6927 39.1816 57.2267V57.2339C39.1816 57.7681 39.1072 58.2298 38.9593 58.6196C38.811 59.0094 38.5983 59.31 38.3204 59.5223C38.043 59.7346 37.7104 59.8409 37.3234 59.8409C36.936 59.8409 36.6042 59.7346 36.3275 59.5223ZM44.3464 59.1549C44.4399 59.0058 44.4867 58.7979 44.4867 58.532V58.5284C44.4867 58.2626 44.4399 58.0555 44.3464 57.9075C44.2532 57.7592 44.1213 57.6853 43.951 57.6853C43.7807 57.6853 43.6492 57.7592 43.5556 57.9075C43.4625 58.0555 43.4157 58.2626 43.4157 58.5284V58.532C43.4157 58.7979 43.4625 59.0058 43.5556 59.1549C43.6492 59.3044 43.7807 59.3788 43.951 59.3788C44.1213 59.3788 44.2532 59.3044 44.3464 59.1549ZM43.2022 59.4576C43.0203 59.2301 42.9292 58.9218 42.9292 58.5321V58.5285C42.9292 58.1391 43.0204 57.8313 43.2022 57.6049C43.3841 57.3787 43.634 57.2651 43.951 57.2651C44.2709 57.2651 44.5211 57.3787 44.7018 57.6049C44.8825 57.8313 44.9729 58.1391 44.9729 58.5285V58.5321C44.9729 58.9218 44.8825 59.2301 44.7018 59.4576C44.5211 59.6851 44.2709 59.7989 43.951 59.7989C43.634 59.7989 43.3841 59.685 43.2022 59.4576ZM40.4937 59.757L43.7343 54.7074H44.3012L41.0677 59.757H40.4937ZM41.2357 56.5552C41.3288 56.4056 41.3756 56.1981 41.3756 55.9323V55.9287C41.3756 55.6624 41.3288 55.4557 41.2357 55.3074C41.1421 55.1591 41.0106 55.0851 40.8403 55.0851C40.6699 55.0851 40.5381 55.1591 40.4449 55.3074C40.3514 55.4557 40.3049 55.6624 40.3049 55.9287V55.9323C40.3049 56.1981 40.3514 56.4056 40.4449 56.5552C40.5381 56.7043 40.6699 56.779 40.8403 56.779C41.0106 56.779 41.1421 56.7043 41.2357 56.5552ZM40.0915 56.8577C39.9092 56.6303 39.8184 56.3217 39.8184 55.9323V55.9287C39.8184 55.5389 39.9092 55.2311 40.0915 55.0047C40.2734 54.7785 40.5228 54.6653 40.8403 54.6653C41.1597 54.6653 41.41 54.7785 41.5907 55.0047C41.7714 55.2311 41.8621 55.5389 41.8621 55.9287V55.9323C41.8621 56.3217 41.7714 56.6303 41.5907 56.8577C41.41 57.0853 41.1597 57.1988 40.8403 57.1988C40.5228 57.1988 40.2734 57.0853 40.0915 56.8577ZM19.9803 57.5694H24.0345V57.2895H19.9803V57.5694ZM48.8868 57.5694H52.9411V57.2895H48.8868V57.5694Z" fill="#0A6738"/>
            </svg>