<svg width="80" height="80" viewBox="0 0 80 80" fill="none" xmlns="http://www.w3.org/2000/svg">
<path d="M19.1499 5C19.1499 3.67392 19.6766 2.40215 20.6143 1.46447C21.552 0.526784 22.8238 0 24.1499 0L34.1499 0C35.4759 0 36.7477 0.526784 37.6854 1.46447C38.6231 2.40215 39.1499 3.67392 39.1499 5V6.225C35.9394 7.60885 33.3132 10.0706 31.7249 13.185C28.9618 13.0408 26.2128 13.6637 23.7817 14.9847C21.3506 16.3057 19.3323 18.2733 17.9499 20.67L12.9499 29.33C11.5666 31.7257 10.8727 34.4573 10.9451 37.2228C11.0175 39.9883 11.8532 42.6799 13.3599 45C12.0471 47.0219 11.241 49.3304 11.0099 51.73C9.98048 51.9419 8.91048 51.8241 7.95187 51.3933C6.99326 50.9625 6.19478 50.2405 5.66986 49.33L0.669862 40.67C0.00685088 39.5216 -0.172822 38.1569 0.170367 36.876C0.513556 35.5951 1.3515 34.5031 2.49986 33.84L3.50986 33.255C3.71908 33.1303 3.88907 32.9494 4.00045 32.7328C4.11184 32.5162 4.16014 32.2727 4.13986 32.03C4.02979 30.6789 4.02979 29.3211 4.13986 27.97C4.16014 27.7273 4.11184 27.4838 4.00045 27.2672C3.88907 27.0506 3.71908 26.8697 3.50986 26.745L2.49986 26.16C1.3515 25.4969 0.513556 24.4049 0.170367 23.124C-0.172822 21.8431 0.00685088 20.4784 0.669862 19.33L5.66986 10.67C6.33292 9.52164 7.425 8.68369 8.70587 8.3405C9.98673 7.99732 11.3515 8.17699 12.4999 8.84L13.5499 9.44C13.9749 9.69 14.5099 9.66 14.9199 9.38C16.0199 8.62333 17.1815 7.95667 18.4049 7.38C18.6262 7.27666 18.814 7.11302 18.9467 6.90786C19.0793 6.70269 19.1515 6.46429 19.1549 6.22L19.1499 5Z" fill="#0A6738"/>
<path d="M45.095 15C43.769 15 42.4972 15.5268 41.5595 16.4645C40.6218 17.4021 40.095 18.6739 40.095 20V21.22C40.095 21.72 39.795 22.17 39.345 22.38C38.1316 22.9521 36.9662 23.6209 35.86 24.38C35.6604 24.5175 35.4264 24.5964 35.1843 24.6079C34.9422 24.6194 34.7018 24.5629 34.49 24.445L33.4401 23.84C32.2917 23.177 30.9269 22.9973 29.6461 23.3405C28.3652 23.6837 27.2731 24.5216 26.61 25.67L21.61 34.33C20.947 35.4784 20.7674 36.8431 21.1106 38.124C21.4537 39.4049 22.2917 40.4969 23.44 41.16L24.45 41.745C24.88 41.995 25.12 42.47 25.08 42.97C24.97 44.3211 24.97 45.6789 25.08 47.03C25.12 47.53 24.88 48.01 24.45 48.255L23.44 48.84C22.2917 49.5031 21.4537 50.5951 21.1106 51.876C20.7674 53.1569 20.947 54.5216 21.61 55.67L26.61 64.33C27.2731 65.4784 28.3652 66.3163 29.6461 66.6595C30.9269 67.0027 32.2917 66.823 33.4401 66.16L34.49 65.56C34.7013 65.4413 34.9415 65.3841 35.1836 65.3947C35.4257 65.4053 35.66 65.4833 35.86 65.62C36.96 66.3767 38.1217 67.0433 39.345 67.62C39.5664 67.7233 39.7542 67.887 39.8869 68.0921C40.0195 68.2973 40.0917 68.5357 40.095 68.78V70C40.095 71.3261 40.6218 72.5979 41.5595 73.5355C42.4972 74.4732 43.769 75 45.095 75H55.095C56.4211 75 57.6929 74.4732 58.6306 73.5355C59.5683 72.5979 60.095 71.3261 60.095 70V68.695C60.095 68.195 60.3851 67.75 60.8301 67.54C62.0134 66.97 63.1434 66.3117 64.22 65.565C64.4202 65.4266 64.6552 65.3471 64.8982 65.3356C65.1413 65.3241 65.3827 65.3811 65.5951 65.5L66.745 66.16C67.8934 66.823 69.2582 67.0027 70.539 66.6595C71.8199 66.3163 72.912 65.4784 73.5751 64.33L78.5751 55.67C79.2381 54.5216 79.4177 53.1569 79.0745 51.876C78.7314 50.5951 77.8934 49.5031 76.745 48.84L75.555 48.155C75.3466 48.0307 75.1772 47.8506 75.0658 47.635C74.9545 47.4194 74.9057 47.1769 74.925 46.935C75.025 45.6469 75.025 44.3531 74.925 43.065C74.9057 42.8231 74.9545 42.5806 75.0658 42.365C75.1772 42.1494 75.3466 41.9693 75.555 41.845L76.745 41.16C77.8934 40.4969 78.7314 39.4049 79.0745 38.124C79.4177 36.8431 79.2381 35.4784 78.5751 34.33L73.5751 25.67C72.912 24.5216 71.8199 23.6837 70.539 23.3405C69.2582 22.9973 67.8934 23.177 66.745 23.84L65.5951 24.5C65.3827 24.6189 65.1413 24.6759 64.8982 24.6644C64.6552 24.6529 64.4202 24.5734 64.22 24.435C63.1435 23.6889 62.01 23.0285 60.8301 22.46C60.612 22.356 60.4273 22.1933 60.2966 21.9902C60.1659 21.787 60.0944 21.5515 60.09 21.31V20C60.09 18.6739 59.5633 17.4021 58.6256 16.4645C57.6879 15.5268 56.4161 15 55.09 15H45.09H45.095ZM60 45C60 47.6522 58.9465 50.1957 57.0711 52.0711C55.1958 53.9464 52.6522 55 50 55C47.3479 55 44.8043 53.9464 42.929 52.0711C41.0536 50.1957 40 47.6522 40 45C40 42.3478 41.0536 39.8043 42.929 37.9289C44.8043 36.0536 47.3479 35 50 35C52.6522 35 55.1958 36.0536 57.0711 37.9289C58.9465 39.8043 60 42.3478 60 45Z" fill="#0A6738"/>
</svg>
