<svg width="80" height="80" viewBox="0 0 80 80" fill="none" xmlns="http://www.w3.org/2000/svg">
<path d="M47.9167 72.7502L26.6667 66.7502V36.6669H32C32.3889 36.6669 32.7778 36.7091 33.1667 36.7935C33.5556 36.878 33.9445 36.9746 34.3333 37.0835L57.4167 45.6669C58.1945 45.9446 58.82 46.4446 59.2933 47.1669C59.7667 47.8891 60.0022 48.6391 60 49.4169C60 50.5835 59.5967 51.528 58.79 52.2502C57.9833 52.9724 57.0533 53.3335 56 53.3335H47.25C46.9722 53.3335 46.7645 53.3202 46.6267 53.2935C46.4889 53.2669 46.3078 53.1969 46.0833 53.0835L42.3333 51.6669C41.8889 51.5002 41.4445 51.528 41 51.7502C40.5556 51.9724 40.2778 52.278 40.1667 52.6669C40.0556 53.1113 40.0833 53.528 40.25 53.9169C40.4167 54.3058 40.7222 54.5835 41.1667 54.7502L46.0833 56.5002C46.1944 56.5558 46.3611 56.598 46.5833 56.6269C46.8056 56.6558 47 56.6691 47.1667 56.6669H70C71.7778 56.6669 73.3333 57.3058 74.6667 58.5835C76 59.8613 76.6667 61.4446 76.6667 63.3335L52.0833 72.5835C51.5278 72.8058 50.8478 72.9313 50.0433 72.9602C49.2389 72.9891 48.53 72.9191 47.9167 72.7502ZM6.66667 66.6669V43.3335C6.66667 41.5002 7.32001 39.9313 8.62667 38.6269C9.93334 37.3224 11.5022 36.6691 13.3333 36.6669C15.1644 36.6646 16.7344 37.318 18.0433 38.6269C19.3522 39.9358 20.0044 41.5046 20 43.3335V66.6669C20 68.5002 19.3478 70.0702 18.0433 71.3769C16.7389 72.6835 15.1689 73.3358 13.3333 73.3335C11.4978 73.3313 9.92889 72.6791 8.62667 71.3769C7.32445 70.0746 6.67112 68.5046 6.66667 66.6669ZM46.4167 27.4169L63 10.9169C63.6111 10.3058 64.3756 9.98576 65.2933 9.95687C66.2111 9.92798 67.0022 10.248 67.6667 10.9169C68.2778 11.528 68.5833 12.3058 68.5833 13.2502C68.5833 14.1946 68.2778 14.9724 67.6667 15.5835L48.75 34.5002C48.0833 35.1669 47.3056 35.5002 46.4167 35.5002C45.5278 35.5002 44.75 35.1669 44.0833 34.5002L34.5833 25.0002C33.9167 24.3335 33.5967 23.5558 33.6233 22.6669C33.65 21.778 33.9978 21.0002 34.6667 20.3335C35.3333 19.7224 36.1111 19.4024 37 19.3735C37.8889 19.3446 38.6667 19.6646 39.3333 20.3335L46.4167 27.4169Z" fill="#0A6738"/>
</svg>
