<svg width="80" height="80" viewBox="0 0 80 80" fill="none" xmlns="http://www.w3.org/2000/svg">
<path d="M40 20C43.8667 20 47.58 20.1178 51.14 20.3533C54.7378 20.5911 58.0411 21.0889 61.05 21.8467C64.1345 22.6133 66.8411 23.78 69.17 25.3467C71.5489 26.9511 73.4631 29.1539 74.72 31.7333C76.0433 34.4033 76.6667 37.63 76.6667 41.4333C76.6667 45.2867 75.9267 48.7933 74.4233 51.9C72.9233 55.0133 70.8467 57.5167 68.1967 59.3533C65.5269 61.2069 62.3467 62.1843 59.0967 62.15C57.0256 62.1522 55.1333 61.86 53.42 61.2733C51.8201 60.7259 50.2844 60.0061 48.84 59.1267C47.5832 58.35 46.3525 57.5318 45.15 56.6733C44.192 55.9774 43.1886 55.3459 42.1467 54.7833C41.4893 54.4204 40.754 54.2214 40.0033 54.2033C39.3067 54.2033 38.5833 54.3933 37.81 54.8033C36.8767 55.3056 35.8844 55.9322 34.8333 56.6833C33.6329 57.5383 32.4044 58.3532 31.15 59.1267C29.7163 60.0068 28.1892 60.7245 26.5967 61.2667C24.7825 61.8682 22.8812 62.1656 20.97 62.1467C17.6977 62.1958 14.4921 61.219 11.8033 59.3533C9.15667 57.52 7.07667 55.0133 5.57667 51.9067C4.07667 48.78 3.32889 45.2911 3.33333 41.44C3.31667 37.6567 3.94 34.4233 5.25667 31.7733C6.51609 29.1785 8.44019 26.9634 10.8333 25.3533C13.1633 23.7867 15.87 22.6333 18.9733 21.8567C22.2207 21.0693 25.5314 20.5707 28.8667 20.3667C32.42 20.1222 36.1311 20 40 20Z" fill="#0A6738"/>
</svg>
