<svg width="75" height="75" viewBox="0 0 75 75" fill="none" xmlns="http://www.w3.org/2000/svg">
<g clip-path="url(#clip0_1_553)">
<path fill-rule="evenodd" clip-rule="evenodd" d="M48.3149 45.8474C53.4841 45.8474 57.6751 50.0379 57.6751 55.2076C57.6751 60.3768 53.4846 64.5678 48.3149 64.5678C43.1457 64.5678 38.9547 60.3773 38.9547 55.2076C38.9547 50.0384 43.1452 45.8474 48.3149 45.8474ZM28.5793 13.5414C28.5793 12.8588 28.7856 12.653 29.4676 12.653H38.3526C39.0351 12.653 39.2409 12.8593 39.2409 13.5414C39.2409 14.8898 37.4637 14.1247 37.4637 16.503C37.4637 30.6026 38.4356 25.8784 40.1292 32.4957C35.0384 32.9192 32.868 38.419 25.6171 38.419C26.5107 36.5562 27.4309 33.1386 28.1699 30.9023C30.8902 22.6655 30.356 25.8742 30.356 16.503C30.356 14.1247 28.5788 14.8898 28.5788 13.5414H28.5793ZM26.506 13.2453C26.506 16.3307 28.2832 15.1958 28.2832 16.7991C28.2832 26.2768 28.7542 22.818 25.7258 31.7155C24.9215 34.0776 17.3255 55.6839 17.3255 57.0772C17.3255 61.7403 23.4775 60.6311 26.2104 60.6311H38.5578C37.6632 59.0252 37.153 57.1759 37.153 55.2076C37.153 49.724 41.1079 45.1638 46.3204 44.2237C45.0268 38.8483 39.5375 27.4195 39.5375 23.6113V16.7997C39.5375 15.1102 41.3147 16.537 41.3147 13.2458C41.3147 9.48981 35.0932 10.5803 29.7643 10.5803C27.916 10.5803 26.5065 11.4279 26.5065 13.2458L26.506 13.2453ZM37.6507 38.6692C38.1541 38.6692 38.5625 39.0775 38.5625 39.581C38.5625 40.0844 38.1541 40.4928 37.6507 40.4928C37.1472 40.4928 36.7388 40.0844 36.7388 39.581C36.7388 39.0775 37.1472 38.6692 37.6507 38.6692ZM31.6449 43.0236C32.1483 43.0236 32.5567 43.432 32.5567 43.9355C32.5567 44.4389 32.1483 44.8473 31.6449 44.8473C31.1414 44.8473 30.733 44.4389 30.733 43.9355C30.733 43.432 31.1414 43.0236 31.6449 43.0236ZM26.9008 50.0327C27.4042 50.0327 27.8126 50.4411 27.8126 50.9445C27.8126 51.4479 27.4042 51.8563 26.9008 51.8563C26.3974 51.8563 25.989 51.4479 25.989 50.9445C25.989 50.4411 26.3974 50.0327 26.9008 50.0327ZM35.2635 46.5937C35.7669 46.5937 36.1753 47.0021 36.1753 47.5055C36.1753 48.009 35.7669 48.4174 35.2635 48.4174C34.7601 48.4174 34.3517 48.009 34.3517 47.5055C34.3517 47.0021 34.7601 46.5937 35.2635 46.5937ZM51.9283 51.5937C52.2176 51.883 52.2176 52.3561 51.9283 52.6455L49.3667 55.2071L51.9288 57.7692C52.2182 58.0585 52.2182 58.5317 51.9288 58.821C51.6395 59.1103 51.1664 59.1103 50.877 58.821L48.3149 56.2589L45.7528 58.821C45.4634 59.1103 44.9903 59.1103 44.701 58.821C44.4116 58.5317 44.4116 58.0585 44.701 57.7692L47.2631 55.2071L44.7015 52.6455C44.4122 52.3561 44.4122 51.883 44.7015 51.5937C44.9908 51.3043 45.464 51.3043 45.7533 51.5937L48.3149 54.1553L50.8765 51.5937C51.1658 51.3043 51.639 51.3043 51.9283 51.5937ZM32.5327 23.4807C33.0361 23.4807 33.4445 23.8891 33.4445 24.3926C33.4445 24.896 33.0361 25.3044 32.5327 25.3044C32.0292 25.3044 31.6208 24.896 31.6208 24.3926C31.6208 23.8891 32.0292 23.4807 32.5327 23.4807ZM35.5392 29.7252C36.0427 29.7252 36.4511 30.1336 36.4511 30.637C36.4511 31.1405 36.0427 31.5489 35.5392 31.5489C35.0358 31.5489 34.6274 31.1405 34.6274 30.637C34.6274 30.1336 35.0358 29.7252 35.5392 29.7252Z" fill="#0A6738"/>
<path fill-rule="evenodd" clip-rule="evenodd" d="M37.5003 0C58.2109 0 75.0005 16.7896 75.0005 37.5003C75.0005 58.2109 58.2109 75.0005 37.5003 75.0005C16.7896 75.0005 0 58.2109 0 37.5003C0 16.7896 16.7896 0 37.5003 0ZM37.5003 2.51878C56.8196 2.51878 72.4812 18.1804 72.4812 37.4997C72.4812 56.8191 56.8196 72.4807 37.5003 72.4807C18.1809 72.4807 2.51931 56.8191 2.51931 37.4997C2.51931 18.1804 18.1809 2.51878 37.5003 2.51878Z" fill="#0A6738"/>
</g>
<defs>
<clipPath id="clip0_1_553">
<rect width="75" height="75" fill="white"/>
</clipPath>
</defs>
</svg>
