<svg width="75" height="75" viewBox="0 0 75 75" fill="none" xmlns="http://www.w3.org/2000/svg">
<g clip-path="url(#clip0_1_558)">
<path fill-rule="evenodd" clip-rule="evenodd" d="M46.2551 28.112L44.9015 28.5196C44.1163 27.219 44.0122 26.6764 42.9196 25.0439C42.1479 23.8909 41.378 22.9298 40.497 22.0272C40.0304 21.5492 39.6359 21.138 39.0966 20.705C37.5149 19.4356 35.5305 18.3777 33.3587 18.1058C33.7297 21.028 35.0839 23.8155 36.422 25.7884C37.2268 26.9751 38.0377 27.7117 38.9381 28.6093C40.1287 29.7963 41.2089 30.1921 42.1111 30.917C41.9923 31.5634 41.5848 32.2264 41.418 33.0916C41.2078 34.1825 41.4187 34.9673 41.3161 35.9216C38.693 36.8689 37.7993 36.7214 35.0686 38.3519C33.0203 39.5749 33.3825 39.4299 31.8767 40.6022L30.2443 42.3165C28.809 44.1349 27.8909 45.6933 27.2491 48.1035C26.6675 50.288 26.5607 53.9167 26.7369 56.2991C27.5412 56.5581 40.6664 56.4353 42.5031 56.3767C42.0645 54.1702 38.7685 54.8493 38.4243 54.0512C37.9777 53.0156 39.9513 50.2667 36.7219 47.0413C36.1675 46.4876 35.1959 46.2649 35.2401 45.3556C35.8122 44.3873 36.6937 45.16 37.2942 45.6326C37.9484 46.1477 38.4849 46.6819 38.9633 47.4169C40.3826 49.5981 39.9285 51.1332 39.9597 53.0359C41.5948 53.6375 42.1267 52.5897 43.5597 52.4675L45.3153 56.324C46.1324 56.4933 48.8957 56.416 49.8495 56.3721C49.7316 53.4366 47.9239 53.9334 47.2574 53.7626C47.0536 53.2885 46.624 51.0955 46.5409 50.4737C46.4243 49.6013 47.1173 49.1943 47.5922 47.534C48.2377 45.277 47.7052 42.2994 47.9286 39.8879C49.011 39.3318 52.1207 38.9443 54.0972 36.5739C54.5612 36.0173 55.01 35.4153 55.3386 34.5723C55.5435 34.0466 55.9653 32.4664 55.7443 31.8947C55.3343 30.8342 51.6335 28.5969 49.6989 28.1961C48.9186 28.0344 49.0527 27.7247 48.4237 26.3347C48.0634 25.5385 47.7314 24.9198 47.3255 24.1909C45.3691 20.6787 41.3131 15.6502 36.7191 15.5027C37.0049 18.3827 37.3729 17.7401 38.9248 18.7882C40.9231 20.1377 42.9775 22.4835 44.2816 24.5179C44.7801 25.2954 46.0095 27.255 46.2552 28.112L46.2551 28.112ZM53.7099 8.00345C53.9681 8.27695 55.8965 9.27393 56.3849 9.58286C57.9398 10.5666 58.7836 11.2519 60.1332 12.3162C60.3627 12.4972 60.4582 12.6162 60.687 12.8077C60.9211 13.0036 61.0907 13.1162 61.3232 13.3247C61.6857 13.6498 62.0738 14.0817 62.4182 14.4267C62.7413 14.7503 63.2116 15.1771 63.5115 15.5254C69.5984 22.5942 73.0621 31.2553 72.166 41.3612C71.8316 45.1324 70.95 48.4301 69.5319 51.8068C69.1484 52.7201 68.331 54.0692 68.1055 54.8052L70.3955 56.0535L71.2312 54.5524C75.5998 45.5196 76.2876 34.8672 72.6783 25.5055C70.8513 20.7666 68.3431 16.7864 65.5857 13.8724C65.1949 13.4594 64.8979 13.0752 64.4997 12.6538L62.6683 10.9321C62.4395 10.7089 62.2803 10.6226 62.0394 10.4091C60.258 8.83085 57.1625 6.7175 54.9283 5.68194C54.6318 5.98532 53.9471 7.51118 53.7098 8.00338L53.7099 8.00345ZM5.76498 54.8929C6.15223 56.1686 8.41851 59.5087 9.32315 60.6477C10.0858 61.6078 10.6654 62.3067 11.4911 63.1835C13.1713 64.9677 14.3646 66.1248 16.3528 67.6309C25.6526 74.6761 38.0992 76.9097 49.4881 73.2876C53.0857 72.1435 53.3187 71.659 56.0775 70.4648L54.8252 68.1417C54.3395 68.2595 53.6043 68.6948 53.1007 68.9513C51.4434 69.7954 49.2519 70.5525 47.477 71.0685C44.6976 71.8765 41.3902 72.3092 38.303 72.3033C30.1283 72.2873 22.418 69.2316 16.9793 64.7049C16.2511 64.0989 15.136 63.1546 14.5742 62.5088C14.2985 62.192 14.1344 62.0995 13.8223 61.7969C12.9557 60.9574 11.1475 58.601 10.4131 57.5677L8.08407 53.7382L5.76498 54.8929V54.8929ZM63.5027 67.3489C64.047 67.0217 64.264 66.7213 64.7389 66.3666C65.1508 66.0588 65.485 65.7217 65.9004 65.3355C66.6835 64.6075 67.4751 64.2368 67.8396 62.8874C68.1977 61.5611 67.6896 60.4251 66.7292 59.917C65.2259 59.1217 64.201 60.0296 63.5027 60.7021C62.9703 60.3439 62.1806 59.1451 60.4858 59.8111C59.47 60.2104 58.7872 61.3193 59.1035 62.7271C59.5013 64.4979 61.3375 65.443 62.8209 66.8574C63.0304 67.0572 63.1878 67.1868 63.5027 67.3489V67.3489ZM0.0971441 41.8425L6.39628 41.9382L6.40682 40.4713L4.65112 40.4397L4.67654 39.1225C6.74863 37.5047 6.43308 38.6743 6.48154 36.3706C5.82629 36.6521 5.04476 37.4595 4.42427 37.6344C4.00668 37.0518 3.75083 36.5912 2.89654 36.4248C1.944 36.2391 1.30603 36.5538 0.824314 37.0444C0.00352649 37.8801 -0.12619 40.4423 0.0971441 41.8424V41.8425ZM30.3724 1.09923L31.4569 7.32593L32.8303 7.10956C32.9351 6.55299 32.6618 5.95468 32.6459 5.3877L34.0381 5.11111C34.2325 5.44371 34.8526 6.04568 35.151 6.34962C35.4276 6.63142 35.4125 6.65454 35.9029 6.56775C36.2493 6.5064 36.5449 6.43872 36.9045 6.38012L35.2802 4.67288C35.5539 4.26114 36.2284 4.00288 36.2031 2.77632C36.1349 -0.524807 31.8367 0.861842 30.3724 1.09923ZM25.4391 56.342L25.5136 50.6586C23.4379 49.6052 21.2035 50.9189 21.0196 52.9899C20.8105 55.3452 22.7969 56.7502 25.4391 56.342H25.4391ZM44.4729 6.6253L49.1745 7.57485C49.3601 7.28047 49.4075 6.79621 49.4551 6.39684L46.1392 5.74027L46.3761 4.34484L49.289 4.89768L49.4849 3.82151L46.6448 3.18588L46.8854 1.88046L50.1135 2.49248L50.386 1.32699C49.4428 1.19185 48.5081 0.96922 47.618 0.782291C47.1817 0.690584 46.7495 0.603444 46.3016 0.50239C45.5961 0.343219 45.6918 0.358398 45.5497 1.13064C45.2926 2.52762 44.4923 5.39579 44.4729 6.62523V6.6253ZM38.1984 6.33577L43.086 6.42003L43.1005 5.23402L39.6694 5.18468L39.7068 3.7662L42.6209 3.76796L42.6468 2.63619L39.726 2.58082L39.7393 1.21989L43.0529 1.25966L43.0817 0.094097L38.2931 0L38.1985 6.33563L38.1984 6.33577ZM2.72764 25.5195L8.47827 28.103L10.5119 23.6064L9.45097 23.1668L8.01349 26.2406L6.72939 25.7007C6.8322 25.0014 7.63101 23.7803 7.86544 22.973L6.82125 22.531C6.66843 23.024 5.8475 24.895 5.57451 25.1569L4.42104 24.6514L5.77221 21.5643L4.74326 21.1432L2.72771 25.5195H2.72764ZM1.41664 29.6051C2.45528 29.8457 3.40263 30.0711 4.41795 30.2914C5.43616 30.5123 6.43983 30.8077 6.15019 32.13C5.89469 33.2966 4.96638 33.3155 3.76902 33.0357C2.77954 32.8044 1.75234 32.5309 0.755698 32.3651L0.467471 33.7375C0.775995 33.9217 4.02852 34.635 4.53643 34.6692C7.74233 34.8846 8.56627 30.2999 5.84027 29.1847C5.13578 28.8965 2.54693 28.3137 1.71688 28.2061L1.41657 29.6051L1.41664 29.6051ZM4.78533 44.3093C5.01821 44.6391 5.91717 44.9885 5.81105 46.4044C5.74637 47.2676 5.07882 47.916 4.3513 48.1035C3.31645 48.3703 2.51547 47.9014 2.12583 47.3369C1.4309 46.3302 1.85369 45.639 2.19234 44.8323L1.13754 44.0836C-0.632905 47.2744 1.73619 50.1922 4.57471 49.5825C7.61142 48.9302 7.90519 44.7584 5.46994 43.3063C5.17757 43.5314 4.95992 44.0493 4.78533 44.3092V44.3093ZM23.6306 3.50436L25.8662 9.35566L27.2224 8.85826L26.446 6.75292C27.1306 6.19333 28.3723 6.13479 29.1146 5.59691L28.7271 4.54793L26.0027 5.58145L25.4079 4.04533L28.4593 2.85046L28.0656 1.75186C27.3281 1.99016 24.0999 3.16578 23.6306 3.50429V3.50436ZM17.6698 6.70429L17.9641 10.0187C14.6219 9.04196 15.6993 8.18581 13.7684 9.67745C14.4706 10.5258 17.5251 10.8475 18.3706 11.9406C18.665 12.3212 19.1688 12.9507 19.3683 13.3525C19.8017 13.1039 20.1854 12.8237 20.5536 12.5024C19.919 11.1255 19.3435 11.593 19.1817 9.78061C19.0687 8.5142 18.8984 7.24927 18.832 5.99016C18.3974 6.11856 18.1418 6.5286 17.6698 6.70429ZM9.13444 14.4903L9.95979 15.2827C10.5147 14.9193 10.8682 14.2821 11.3074 13.875C11.9025 14.2295 14.7344 17.1597 15.0899 17.3401L16.0213 16.3618C15.7606 15.8748 13.095 13.5233 12.4026 12.8106C12.7529 12.2611 13.1967 11.8425 13.7342 11.3869C13.5633 11.0183 13.1997 10.7602 12.894 10.5283L9.13437 14.4902L9.13444 14.4903ZM6.06353 18.8847L9.89406 21.5739C10.3151 21.8593 10.7747 22.2656 11.221 22.4347C11.4799 22.1746 13.7082 18.935 13.8153 18.6754C13.5434 18.3756 13.2518 18.2207 12.894 18.0248C12.5271 18.3886 11.4199 20.0364 11.1203 20.5512C10.3539 20.2857 7.65201 18.0536 6.82933 17.7247C6.576 18.0045 6.17955 18.5486 6.06353 18.8846V18.8847ZM1.32527 40.3908L3.46555 40.4195C3.54548 39.3084 3.68285 37.9068 2.43822 37.877C1.22947 37.8481 1.12631 39.3195 1.32527 40.3908ZM32.0189 2.0163L32.398 4.16451C33.5577 4.09726 34.8585 3.91363 34.7033 2.70366C34.5357 1.39775 33.0765 1.89065 32.0189 2.01623V2.0163ZM49.6219 31.0142C48.135 31.8221 49.3179 33.6061 50.5704 33.0437C51.7718 32.5042 51.0319 30.2481 49.6219 31.0142Z" fill="#0A6738"/>
</g>
<defs>
<clipPath id="clip0_1_558">
<rect width="75" height="75" fill="white"/>
</clipPath>
</defs>
</svg>
