<svg width="65" height="40" viewBox="0 0 65 40" fill="none" xmlns="http://www.w3.org/2000/svg">
<path fill-rule="evenodd" clip-rule="evenodd" d="M36.0507 8.49778H34.7517C28.3725 8.49778 22.6984 6.75057 15.4826 6.75057C12.1217 6.75057 10.0307 7.30122 7.59003 9.08765C7.19207 9.37894 6.89952 9.72872 6.59054 10.1332C5.78035 11.1939 5.24704 13.2157 5.78164 14.6641C6.10199 15.5321 6.58343 16.0443 7.34981 16.4453C8.56476 17.081 10.2618 16.9159 11.2489 16.1809C11.7367 15.8176 12.4126 14.6762 11.9763 13.7812C11.3574 13.6211 10.9729 13.9648 10.356 13.9653C7.63472 13.9678 7.68632 10.9338 10.1734 9.82463C11.125 9.40026 12.2804 9.19964 13.5054 9.14888C14.1718 9.12127 16.9162 9.13043 17.428 9.28836C17.4092 9.48023 16.8061 9.89691 16.6458 10.0586C15.157 11.5596 14.6974 13.8752 14.2704 15.9306C14.1564 16.4794 13.8237 18.2614 13.6255 18.5714C13.3127 18.883 10.2581 19.0295 9.2683 19.6526C8.60214 20.072 8.26378 21.1076 8.53506 21.887C8.71039 22.3906 9.56139 21.7258 10.8021 21.3225C11.4628 21.1077 12.4576 20.8004 13.1939 20.7586C13.1302 21.8166 12.3705 24.3409 12.0467 25.429C11.6342 26.8154 10.9637 28.4345 10.2373 29.5057C9.54766 30.5227 8.49737 31.8166 6.89279 32.0296C5.93702 32.1565 5.16698 31.8722 4.5715 31.4634C2.57645 30.0939 3.81771 26.4126 6.46377 26.3463C7.08278 26.3308 7.81763 26.6809 8.15539 26.6034C8.78232 26.4594 8.92445 25.858 8.47993 25.4859C7.20353 24.4175 4.96516 24.9135 3.83096 25.6717C0.769871 27.7183 0.651365 32.2792 3.43071 34.3508C5.9532 36.2308 9.60587 35.7282 11.6517 33.9047C13.1528 32.5667 14.0449 31.0077 14.7997 29.0606C16.0208 25.9105 16.5896 21.1979 16.9412 20.2193C17.0665 19.8703 18.763 19.4989 19.1241 19.3797C19.6977 19.1904 20.0929 18.9394 20.5795 18.7438C20.3394 20.8556 18.4798 28.6745 18.6845 29.7016C19.31 29.968 21.2449 29.6275 21.8285 29.2983C22.1975 29.0901 22.2326 28.3768 22.3224 27.9213C22.6215 26.4034 23.4961 21.3101 24.3152 20.4488C24.5243 20.9742 24.5673 22.569 26.1722 23.4751C26.6144 23.7248 26.8757 23.7713 27.3787 23.9375C27.5533 26.5885 28.6969 28.6144 31.3539 28.7283C33.4687 28.819 34.9558 27.9393 36.416 26.7004C36.5404 26.5948 36.5864 26.5235 36.7019 26.4311C36.9451 26.2362 37.0181 26.1357 37.2861 25.9173C37.4116 26.0527 37.5795 26.7222 37.9483 27.155C39.886 29.4293 46.0068 28.611 46.0068 23.9123C46.0068 21.7871 44.5655 20.9051 43.5422 19.4881C43.2176 19.0386 42.8985 18.7185 42.5805 18.1578C41.9196 16.9926 41.9472 15.398 43.5221 15.3143C44.2271 15.2768 44.8067 15.6467 45.009 16.1483C45.2893 16.8433 44.8444 17.7134 45.0069 18.1451C45.3104 18.4747 47.1209 17.4132 46.9679 15.4732C46.7144 12.2571 40.9382 12.6724 39.6141 15.7018C39.3159 16.384 39.2683 17.0088 39.3461 17.7841C39.5351 19.6681 39.2576 20.3357 38.4847 21.6412C37.3803 23.5068 35.4289 25.692 33.1718 25.9799C31.5995 26.1805 30.7623 25.1102 30.8286 23.6268C32.0796 23.2954 32.7998 23.1617 33.9648 22.5007C37.5155 20.4864 39.1131 15.9287 36.4332 14.5231C34.86 13.698 32.7871 14.2798 31.4669 15.2703C30.8217 15.7545 30.3206 16.2586 29.8384 16.8617C29.3353 17.4909 28.9532 18.1214 28.5792 18.8897C28.1002 19.8736 27.8516 21.1103 27.4522 22.1089C26.9163 21.9636 26.2843 21.3358 26.0597 20.8587C25.7879 20.2813 25.6584 19.1962 26.1066 18.698C26.868 17.8514 28.5573 18.0657 28.7821 15.9079C29.0223 13.601 26.5394 14.6444 25.6927 15.4884C24.8408 16.3378 24.2562 17.7477 23.5451 18.7257C23.6218 18.0548 23.8456 16.8998 23.786 16.2768C23.786 15.171 23.6009 14.8445 22.4752 14.9428C21.706 15.01 21.3894 15.6046 20.9159 16.0895C20.2439 16.778 18.5573 17.7393 17.2486 17.8881C17.2791 17.1306 17.7289 14.0237 17.8831 13.224C18.0206 12.5112 18.2312 11.7998 18.515 11.1899C18.7494 10.6862 19.2968 9.82438 19.5998 9.6103C20.1582 9.43741 27.0607 10.7954 28.2146 10.9936C32.5917 11.7454 44.1072 13.5502 46.7249 8.44193C47.3232 7.27438 47.2713 6.09157 46.5802 5.14901C46.1598 5.13267 46.1524 5.21004 45.9837 5.46518C45.6258 6.00631 45.2627 6.38775 44.6873 6.76717C42.6193 8.13056 38.5436 8.49778 36.0508 8.49778H36.0507ZM54.9782 16.3745C55.269 18.9256 52.5076 22.7016 53.2961 25.8853C53.8677 28.1934 57.072 27.7991 58.9116 26.0301C59.2242 25.7295 59.9978 24.7503 59.8037 24.0589C59.3775 23.7435 58.9777 24.2357 58.6989 24.4499C58.4079 24.6736 57.89 24.9661 57.3856 24.8725C56.39 24.6876 56.6405 22.9699 56.8093 22.06C57.2844 19.4994 59.5608 14.8482 57.8936 13.3191C57.2526 12.7312 55.9023 12.7821 55.0425 13.1989C54.3585 13.5305 53.447 14.3819 53.0933 14.907C52.8437 15.2776 51.8036 16.9215 51.6039 17.0945C51.6739 16.4746 53.5621 8.29643 53.8074 7.1245C54.1143 5.65852 54.8333 4.5316 52.7162 5.14877C52.1105 5.32536 51.1517 5.65168 50.6924 6.09949C50.4059 6.37877 50.4586 6.41135 50.3787 6.84798L48.4476 17.1336C48.0008 19.3491 47.5979 21.6675 47.0496 23.8626C46.8828 24.5304 46.3983 26.6607 46.4725 27.332C46.5258 27.8141 47.2734 27.6162 48.0984 27.5317C48.5913 27.4811 49.4994 27.4599 49.7686 27.1455C50.1415 26.7101 50.3038 24.6457 50.5075 23.853C50.7899 22.7543 51.116 21.7662 51.4947 20.7468C51.869 19.7391 52.3441 18.804 52.839 18.0024C53.0389 17.6785 53.4774 17.0128 53.683 16.8018C53.9448 16.5332 54.4764 15.9827 54.9782 16.3745V16.3745ZM59.2833 20.8705C59.607 21.0241 61.2937 20.9166 61.7791 22.6329C62.1169 23.8274 61.6795 25.2796 61.2128 26.235C60.3326 28.0368 58.6281 29.4652 56.6224 30.307C48.6923 33.6356 34.6659 29.9738 24.458 31.2572C21.2974 31.6546 16.988 32.4956 16.0938 35.891C15.7759 37.098 16.0417 38.6935 16.7085 39.3682C17.0545 39.3669 17.1981 39.1637 17.3548 38.9544C18.427 37.5228 20.4238 36.5549 22.0687 35.872C30.5961 32.3317 45.6276 34.9731 54.3123 32.6514C64.4819 29.9328 64.2123 21.9925 62.1394 20.4736C61.0773 19.6954 59.0025 19.5367 59.2833 20.8705H59.2833ZM40.4361 20.6833C40.3564 20.812 39.9799 22.0203 39.3373 23.0552C39.1797 23.3089 38.9797 23.5081 38.9654 23.8499C38.9094 25.1892 39.9952 26.3113 41.284 26.1774C42.7155 26.0286 43.1366 24.7168 42.4791 23.3479C42.2532 22.8778 41.8321 22.365 41.5201 21.9532C41.285 21.6429 40.6937 20.8016 40.4361 20.6833H40.4361ZM30.8218 21.8288C32.4583 21.5567 34.4341 19.9709 35.0674 18.4584C35.2967 17.9107 35.5346 16.8635 35.0634 16.3989C34.1331 15.4815 32.7297 17.16 32.1932 18.0484C31.6242 18.9907 30.9658 20.5322 30.8218 21.8288ZM-0.000102502 20.5601C0.0907139 20.6473 -0.0106498 20.5891 0.131612 20.6507C0.848868 20.9609 1.96567 20.5735 2.87696 22.9256L3.02928 23.3294C3.11443 23.4947 3.06188 23.4101 3.14734 23.5078C3.19385 22.6398 3.5863 21.8276 4.01973 21.3936C4.60987 20.8026 5.45697 20.8413 6.02969 20.4512C5.37993 20.3228 4.29623 19.9427 3.96351 19.5361C3.72707 19.2472 3.16454 17.8222 2.92536 17.5595C2.72707 20.1347 0.409618 20.2165 -0.00012207 20.5602L-0.000102502 20.5601ZM30.3089 3.00364C30.579 3.13462 31.1028 3.22495 31.4151 3.36714C32.2636 3.7534 32.9014 4.41217 33.1517 5.34222L33.3479 5.98678C33.5152 5.60456 33.5265 5.22339 33.6924 4.84041C33.8875 4.39012 34.0024 4.25479 34.2975 3.96132C35.2075 3.05633 36.0679 3.2384 36.3759 2.97801C36.17 2.91708 36.0653 2.83613 35.8349 2.77279C35.6101 2.71101 35.4459 2.68324 35.2494 2.61634C34.603 2.39622 33.943 1.82665 33.6534 1.17935C33.3701 0.54625 33.4696 0.136469 33.2713 0C33.0786 0.158889 33.0043 0.869516 32.9015 1.13235C32.7635 1.48484 32.5199 1.81788 32.302 2.01687C31.6765 2.58806 31.2657 2.69524 30.309 3.00366L30.3089 3.00364ZM51.7272 37.4414C52.5902 37.5697 53.3187 38.1235 53.6062 38.9125L53.8148 39.2904C53.9272 38.8272 54.128 38.2301 54.4174 37.9643C54.8001 37.6128 55.3729 37.6134 55.733 37.3326C55.1823 37.1935 54.7458 37.0359 54.4011 36.6944C53.7268 36.0262 53.9507 35.7116 53.7776 35.3105C53.4076 35.3764 53.7568 35.8897 53.0806 36.6834C52.6347 37.2068 52.2285 37.1192 51.7272 37.4414V37.4414ZM61.0953 15.9664C61.2289 16.1679 61.4661 16.1664 61.715 16.2459C62.5428 16.5103 62.7715 17.2176 63.054 17.8742C63.2783 17.5635 63.4951 16.8296 63.6876 16.6133C63.8156 16.4697 64.7684 16.0932 64.9999 15.9474C64.3771 15.7115 64.1707 15.779 63.7085 15.3591C63.2094 14.9056 63.3127 14.6926 63.0537 14.0486C62.4281 15.9602 61.6128 15.7098 61.0953 15.9664H61.0953ZM36.6157 38.5006C36.9156 38.7101 37.2606 38.7395 37.6196 39.0355C37.9629 39.3186 37.9822 39.5742 38.2125 40L38.4542 39.4886C38.7101 39.0004 38.9534 38.7248 39.5339 38.6005L39.8997 38.4859C38.7385 37.9011 38.8088 38.2818 38.3841 37.1566C38.2757 36.8695 38.2459 36.9076 38.1836 36.8538C37.928 38.083 37.2964 38.1366 36.6157 38.5006H36.6157ZM56.7857 8.98686C56.7996 8.99925 56.8224 8.99597 56.8309 9.01969C56.8392 9.04295 56.8645 9.04423 56.8761 9.05066C57.1933 9.2253 57.4394 9.1795 57.781 9.4604C58.006 9.64549 58.183 10.0922 58.3274 10.4034C58.4561 10.2401 58.4518 9.75147 58.8492 9.45499C59.0728 9.28814 59.5403 9.13769 59.8212 8.96509C58.9311 8.79029 58.5254 8.39199 58.2734 7.53438C58.0444 7.96432 58.1244 8.11473 57.7547 8.47949C57.441 8.78903 57.274 8.85914 56.7857 8.98688V8.98686ZM40.0986 3.66844L40.1934 3.72274C40.4653 3.85184 40.8307 3.92327 41.0557 4.17003C41.2427 4.37515 41.3693 4.80224 41.5844 5.07791C41.7763 4.28329 42.0469 3.86381 42.8761 3.75175L42.4706 3.49089C41.8525 3.20259 41.864 3.2506 41.5758 2.40368L41.0467 3.23366C40.9054 3.37371 40.296 3.62242 40.0986 3.6684L40.0986 3.66844ZM22.6043 3.61296C23.0489 3.7571 23.2216 3.69182 23.5025 3.99497C23.7416 4.25306 23.7664 4.66849 24.0063 4.82089C24.277 4.58126 24.1961 4.12375 24.4508 3.93813C24.5428 3.87099 24.7209 3.80292 24.856 3.72223C25.0076 3.6317 25.1641 3.54344 25.2896 3.47368C24.0167 3.09641 24.5007 2.83155 23.8661 2.22286C23.7876 3.4569 22.7171 3.27282 22.6043 3.61298L22.6043 3.61296Z" fill="#0A6738"/>
</svg>
