<svg width="15" height="15" viewBox="0 0 15 15" fill="none" xmlns="http://www.w3.org/2000/svg">
<path d="M7.84619 0.692308C7.84619 0.875919 7.77325 1.05201 7.64342 1.18184C7.51359 1.31168 7.3375 1.38462 7.15388 1.38462H1.61542C1.55422 1.38462 1.49552 1.40893 1.45224 1.45221C1.40897 1.49548 1.38465 1.55418 1.38465 1.61538V12.6923C1.38465 12.7535 1.40897 12.8122 1.45224 12.8555C1.49552 12.8988 1.55422 12.9231 1.61542 12.9231H7.15388C7.3375 12.9231 7.51359 12.996 7.64342 13.1258C7.77325 13.2557 7.84619 13.4318 7.84619 13.6154C7.84619 13.799 7.77325 13.9751 7.64342 14.1049C7.51359 14.2348 7.3375 14.3077 7.15388 14.3077H1.61542C0.72373 14.3077 3.75211e-05 13.584 3.75211e-05 12.6923V1.61538C3.75211e-05 1.18696 0.17023 0.776079 0.473173 0.473136C0.776117 0.170193 1.187 1.49012e-07 1.61542 1.49012e-07H7.15388C7.3375 1.49012e-07 7.51359 0.072939 7.64342 0.202772C7.77325 0.332605 7.84619 0.508696 7.84619 0.692308Z" fill="#ACD140"/>
<path d="M15 6.1246C15 5.87979 14.9028 5.645 14.7297 5.47189C14.5566 5.29878 14.3218 5.20152 14.077 5.20152H9.59451C9.57297 4.87352 9.54651 4.54552 9.51512 4.21752L9.48743 3.93599C9.47712 3.82988 9.44136 3.72783 9.3832 3.63849C9.32503 3.54914 9.24617 3.47515 9.15331 3.42279C9.06045 3.37043 8.95633 3.34124 8.84978 3.33769C8.74324 3.33415 8.63741 3.35637 8.54128 3.40245C6.85341 4.21039 5.32571 5.31715 4.03204 6.66922L4.00435 6.69783C3.88533 6.82164 3.81885 6.98671 3.81885 7.15845C3.81885 7.33019 3.88533 7.49526 4.00435 7.61906L4.03204 7.64768C5.32571 8.99974 6.85341 10.1065 8.54128 10.9144C8.63741 10.9605 8.74324 10.9827 8.84978 10.9792C8.95633 10.9757 9.06045 10.9465 9.15331 10.8941C9.24617 10.8417 9.32503 10.7677 9.3832 10.6784C9.44136 10.5891 9.47712 10.487 9.48743 10.3809L9.51512 10.0994C9.54651 9.77199 9.57297 9.44399 9.59451 9.11537H14.077C14.3218 9.11537 14.5566 9.01812 14.7297 8.84501C14.9028 8.6719 15 8.43711 15 8.19229V6.1246Z" fill="#ACD140"/>
</svg>
