<svg width="75" height="75" viewBox="0 0 75 75" fill="none" xmlns="http://www.w3.org/2000/svg">
<g clip-path="url(#clip0_1_561)">
<path d="M37.5001 3.99773C32.9765 3.99773 28.5892 4.88325 24.4602 6.62972C20.471 8.31745 16.8879 10.733 13.8105 13.8105C10.7331 16.8879 8.31716 20.4708 6.62991 24.4602C4.88343 28.5892 3.99797 32.9764 3.99797 37.5001C3.99797 42.0237 4.88343 46.4109 6.62991 50.5399C8.31716 54.5294 10.7331 58.1122 13.8105 61.1898C16.8879 64.267 20.471 66.6829 24.4602 68.3704C28.5892 70.1166 32.9765 71.0022 37.5001 71.0022C42.0237 71.0022 46.411 70.1167 50.54 68.3704C54.5297 66.6829 58.1126 64.267 61.1901 61.1898C64.267 58.1122 66.6831 54.5294 68.3702 50.5399C70.1167 46.4109 71.0022 42.0237 71.0022 37.5001C71.0022 32.9764 70.1167 28.5892 68.3702 24.4602C66.6831 20.4708 64.267 16.8879 61.1901 13.8105C58.1126 10.733 54.5297 8.31745 50.54 6.62972C46.411 4.88325 42.0237 3.99773 37.5001 3.99773ZM37.5001 75C32.4385 75 27.5273 74.0082 22.9028 72.0524C18.4371 70.1634 14.4269 67.4597 10.9835 64.0167C7.54029 60.5734 4.8367 56.5631 2.94784 52.0975C0.991825 47.4728 6.10352e-05 42.5618 6.10352e-05 37.5001C6.10352e-05 32.4385 0.991825 27.5273 2.94784 22.9028C4.83672 18.4371 7.54029 14.4268 10.9835 10.9836C14.4268 7.54045 18.4371 4.83651 22.9028 2.94796C27.5273 0.992249 32.4385 0 37.5001 0C42.5618 0 47.4728 0.992249 52.0976 2.94796C56.5634 4.83651 60.5731 7.54045 64.0169 10.9836C67.4595 14.4268 70.1635 18.4371 72.0526 22.9028C74.0083 27.5273 75 32.4385 75 37.5001C75 42.5618 74.0083 47.4728 72.0526 52.0975C70.1635 56.5631 67.4595 60.5734 64.0169 64.0167C60.5731 67.4597 56.5634 70.1634 52.0976 72.0524C47.4728 74.0082 42.5618 75 37.5001 75ZM37.5001 6.40851C33.3023 6.40851 29.2307 7.23048 25.3979 8.85165C21.6956 10.4171 18.3705 12.6593 15.5148 15.515C12.6592 18.3706 10.4173 21.6956 8.85131 25.398C7.23018 29.2307 6.40815 33.3024 6.40815 37.5001C6.40815 41.6979 7.23018 45.7697 8.85131 49.6024C10.4173 53.3045 12.6592 56.6299 15.5148 59.4851C18.3705 62.3408 21.6956 64.5828 25.3979 66.1488C29.2307 67.7699 33.3023 68.5918 37.5001 68.5918C41.6979 68.5918 45.7697 67.7699 49.6024 66.1488C53.3043 64.5828 56.6299 62.3408 59.485 59.4851C62.3406 56.6299 64.5829 53.3045 66.1489 49.6024C67.7701 45.7696 68.5921 41.6979 68.5921 37.5001C68.5921 33.3024 67.7701 29.2307 66.1489 25.398C64.5829 21.6957 62.3406 18.3706 59.485 15.515C56.6299 12.6593 53.3043 10.4171 49.6024 8.85165C45.7697 7.23048 41.6979 6.40851 37.5001 6.40851ZM37.5001 69.8144C33.138 69.8144 28.906 68.9601 24.9217 67.2746C21.0736 65.647 17.6179 63.3171 14.6504 60.3498C11.6829 57.3822 9.35303 53.9265 7.7254 50.0785C6.04019 46.0943 5.18571 41.8621 5.18571 37.5001C5.18571 33.1379 6.04019 28.906 7.7254 24.9217C9.35303 21.0739 11.6829 17.6181 14.6504 14.6504C17.6179 11.6827 21.0736 9.35286 24.9217 7.72567C28.906 6.04036 33.138 5.18601 37.5001 5.18601C41.8622 5.18601 46.0943 6.04036 50.0786 7.72567C53.9266 9.35283 57.3824 11.6827 60.3501 14.6504C63.3173 17.6181 65.6471 21.0739 67.2749 24.9217C68.9602 28.906 69.8146 33.1379 69.8146 37.5001C69.8146 41.8621 68.9602 46.0943 67.2749 50.0785C65.6471 53.9265 63.3173 57.3822 60.3501 60.3498C57.3824 63.3171 53.9266 65.647 50.0786 67.2746C46.0943 68.9601 41.8622 69.8144 37.5001 69.8144ZM51.9349 14.9478C50.3669 18.6536 50.7966 23.4939 48.2704 28.3423C46.9243 30.9251 44.0542 32.6335 41.1446 32.7549C39.868 32.8081 38.5807 32.5196 37.4341 31.9564C37.5265 31.7944 37.6136 31.6263 37.6936 31.4553C38.4504 29.8311 38.6187 27.8653 38.1705 25.9924C41.4792 22.3725 44.5759 20.27 44.5759 20.27C44.5759 20.27 41.362 21.4001 37.8303 24.8836C37.2414 23.314 36.2264 21.8378 34.8675 20.5817C35.394 19.7645 36.0341 19.0175 36.7481 18.3574C39.9987 15.3537 44.2025 14.6085 51.9348 14.9478H51.9349ZM19.4601 17.7584C21.0003 21.3989 20.5783 26.1533 23.0598 30.9159C24.3821 33.4531 27.2014 35.1313 30.0597 35.2505C32.018 35.3321 34.0023 34.5952 35.4468 33.2895C36.4103 34.4125 36.924 35.9809 36.924 35.9809L37.8291 35.2981C37.3082 34.3409 36.7389 33.4281 36.1436 32.564C36.048 32.4257 35.9521 32.2884 35.8553 32.1525C31.8049 26.4603 26.6887 22.9862 26.6887 22.9862C26.6887 22.9862 32.2735 24.9504 36.7505 31.7045C36.8564 31.5256 36.954 31.3411 37.0423 31.1515C37.8255 29.4724 37.8839 27.4989 37.3554 25.7232C36.8268 23.947 35.739 22.3652 34.3782 21.1075C31.1853 18.1571 27.0557 17.4251 19.4601 17.7584V17.7584ZM18.6162 49.4696H18.5829L15.9745 41.5515H14.3683L17.7798 51.1292H19.4259L22.8375 41.5515H21.2246L18.6162 49.4696H18.6162ZM23.8929 51.1292H29.9727V49.8415H25.3795V46.8747H29.727V45.627H25.3795V42.8393H29.9727V41.5515H23.8929V51.1292V51.1292ZM35.7738 47.3788H38.2825V47.5383C38.2781 48.0204 38.1641 48.4442 37.9407 48.8092C37.7172 49.1743 37.4073 49.4589 37.0116 49.6623C36.6153 49.8659 36.1589 49.9674 35.6411 49.9674C35.0346 49.9674 34.5105 49.8203 34.0679 49.5261C33.6254 49.2318 33.2836 48.8092 33.0425 48.2583C32.8014 47.7074 32.6806 47.0517 32.6806 46.2906V46.2838C32.6806 45.5362 32.7978 44.8957 33.0325 44.3624C33.2672 43.8291 33.6042 43.4209 34.0447 43.1379C34.4849 42.8544 35.0083 42.7129 35.6144 42.7129C36.2384 42.7129 36.7637 42.8656 37.1907 43.171C37.6177 43.4761 37.9307 43.9055 38.1298 44.4587L38.1565 44.5315H39.6897L39.6634 44.4188C39.5306 43.8391 39.2872 43.3213 38.9329 42.8656C38.5792 42.4099 38.1234 42.0505 37.5657 41.787C37.0084 41.5239 36.3579 41.392 35.6143 41.392C34.7072 41.392 33.9196 41.5911 33.2516 41.9893C32.5835 42.3878 32.0678 42.9519 31.705 43.682C31.3421 44.4119 31.1608 45.2815 31.1608 46.2906V46.297C31.1608 47.3236 31.3433 48.2099 31.7083 48.9555C32.0734 49.7011 32.5899 50.276 33.2584 50.681C33.9264 51.086 34.716 51.2883 35.6279 51.2883C36.495 51.2883 37.2362 51.1236 37.8511 50.7938C38.4663 50.4644 38.9373 49.9898 39.2648 49.3701C39.5922 48.7509 39.7561 48.0096 39.7561 47.1465V46.1642H35.7738V47.3788ZM43.2483 47.3456L44.6743 43.1379H44.7074L46.1299 47.3456H43.2483ZM45.0925 41.5515H43.8847L40.3998 51.1292H41.9665L42.8437 48.5406H46.5341L47.4088 51.1292H48.9752L45.4975 41.5515H45.0925ZM56.3692 41.5515V48.6202H56.3278L51.4047 41.5515H50.0306V51.1292H51.511V44.0406H51.5462L56.4759 51.1292H57.8494V41.5515H56.3692ZM29.327 55.3758H29.3131L27.9763 56.3064V55.6732L29.3201 54.7073H29.936V59.757H29.327V55.3758H29.327ZM33.6366 59.0414C33.8197 58.8746 33.9596 58.6372 34.0567 58.329C34.1535 58.0211 34.2019 57.6561 34.2019 57.2339V57.2267C34.2019 56.8046 34.1535 56.4399 34.0567 56.1333C33.9596 55.8267 33.8197 55.5904 33.6366 55.4245C33.4535 55.259 33.2336 55.1762 32.9769 55.1762C32.7203 55.1762 32.5012 55.259 32.3191 55.4245C32.1372 55.5904 31.9983 55.8267 31.9026 56.1333C31.807 56.4399 31.7592 56.8046 31.7592 57.2267V57.2339C31.7592 57.6561 31.807 58.0211 31.9026 58.329C31.9983 58.6372 32.1372 58.8746 32.3191 59.0414C32.5012 59.2081 32.7203 59.2916 32.9769 59.2916C33.2336 59.2916 33.4535 59.2081 33.6366 59.0414ZM31.9814 59.5223C31.705 59.31 31.4932 59.0094 31.3462 58.6196C31.1993 58.2298 31.1258 57.7681 31.1258 57.2339V57.2267C31.1258 56.6927 31.1993 56.2305 31.3462 55.8411C31.4932 55.4513 31.705 55.1511 31.9814 54.94C32.2578 54.7289 32.5895 54.6233 32.9769 54.6233C33.3643 54.6233 33.6965 54.7289 33.9743 54.94C34.2518 55.1511 34.4649 55.4513 34.6129 55.8411C34.7612 56.2305 34.8351 56.6927 34.8351 57.2267V57.2339C34.8351 57.7681 34.7612 58.2298 34.6129 58.6196C34.4649 59.0094 34.2518 59.31 33.9743 59.5223C33.6965 59.7346 33.3643 59.8409 32.9769 59.8409C32.5895 59.8409 32.2578 59.7346 31.9814 59.5223ZM37.9831 59.0414C38.1661 58.8746 38.3061 58.6372 38.4028 58.329C38.4996 58.0211 38.5479 57.6561 38.5479 57.2339V57.2267C38.5479 56.8046 38.4996 56.4399 38.4028 56.1333C38.3061 55.8267 38.1661 55.5904 37.9831 55.4245C37.7999 55.259 37.5801 55.1762 37.3234 55.1762C37.0668 55.1762 36.8473 55.259 36.6654 55.4245C36.4834 55.5904 36.3447 55.8267 36.2492 56.1333C36.1532 56.4399 36.1057 56.8046 36.1057 57.2267V57.2339C36.1057 57.6561 36.1532 58.0211 36.2492 58.329C36.3447 58.6372 36.4835 58.8746 36.6654 59.0414C36.8473 59.2081 37.0667 59.2916 37.3234 59.2916C37.5801 59.2916 37.7999 59.2081 37.9831 59.0414ZM36.3276 59.5223C36.0513 59.31 35.8394 59.0094 35.6927 58.6196C35.5456 58.2298 35.472 57.7681 35.472 57.2339V57.2267C35.472 56.6927 35.5456 56.2305 35.6927 55.8411C35.8394 55.4513 36.0513 55.1511 36.3276 54.94C36.6042 54.7289 36.936 54.6233 37.3234 54.6233C37.7104 54.6233 38.0431 54.7289 38.3205 54.94C38.5983 55.1511 38.811 55.4513 38.9593 55.8411C39.1073 56.2305 39.1816 56.6927 39.1816 57.2267V57.2339C39.1816 57.7681 39.1072 58.2298 38.9593 58.6196C38.811 59.0094 38.5983 59.31 38.3205 59.5223C38.0431 59.7346 37.7104 59.8409 37.3234 59.8409C36.936 59.8409 36.6042 59.7346 36.3276 59.5223ZM44.3465 59.1549C44.44 59.0058 44.4868 58.7979 44.4868 58.532V58.5284C44.4868 58.2626 44.44 58.0555 44.3465 57.9075C44.2533 57.7592 44.1214 57.6853 43.9511 57.6853C43.7808 57.6853 43.6493 57.7592 43.5557 57.9075C43.4626 58.0555 43.4157 58.2626 43.4157 58.5284V58.532C43.4157 58.7979 43.4626 59.0058 43.5557 59.1549C43.6493 59.3044 43.7808 59.3788 43.9511 59.3788C44.1214 59.3788 44.2533 59.3044 44.3465 59.1549ZM43.2023 59.4576C43.0204 59.2301 42.9292 58.9218 42.9292 58.5321V58.5285C42.9292 58.1391 43.0204 57.8313 43.2023 57.6049C43.3842 57.3787 43.634 57.2651 43.9511 57.2651C44.2709 57.2651 44.5212 57.3787 44.7019 57.6049C44.8826 57.8313 44.9729 58.1391 44.9729 58.5285V58.5321C44.9729 58.9218 44.8826 59.2301 44.7019 59.4576C44.5212 59.6851 44.2709 59.7989 43.9511 59.7989C43.634 59.7989 43.3842 59.685 43.2023 59.4576ZM40.4937 59.757L43.7344 54.7074H44.3013L41.0678 59.757H40.4937ZM41.2357 56.5552C41.3289 56.4056 41.3757 56.1981 41.3757 55.9323V55.9287C41.3757 55.6624 41.3289 55.4557 41.2357 55.3074C41.1422 55.1591 41.0107 55.0851 40.8403 55.0851C40.67 55.0851 40.5381 55.1591 40.4449 55.3074C40.3514 55.4557 40.305 55.6624 40.305 55.9287V55.9323C40.305 56.1981 40.3514 56.4056 40.4449 56.5552C40.5381 56.7043 40.67 56.779 40.8403 56.779C41.0107 56.779 41.1422 56.7043 41.2357 56.5552ZM40.0916 56.8577C39.9092 56.6303 39.8185 56.3217 39.8185 55.9323V55.9287C39.8185 55.5389 39.9092 55.2311 40.0916 55.0047C40.2735 54.7785 40.5229 54.6653 40.8403 54.6653C41.1598 54.6653 41.41 54.7785 41.5907 55.0047C41.7714 55.2311 41.8622 55.5389 41.8622 55.9287V55.9323C41.8622 56.3217 41.7714 56.6303 41.5907 56.8577C41.41 57.0853 41.1598 57.1988 40.8403 57.1988C40.5229 57.1988 40.2735 57.0853 40.0916 56.8577ZM19.9804 57.5694H24.0346V57.2895H19.9804V57.5694ZM48.8869 57.5694H52.9411V57.2895H48.8869V57.5694Z" fill="#0A6738"/>
</g>
<defs>
<clipPath id="clip0_1_561">
<rect width="75" height="75" fill="white"/>
</clipPath>
</defs>
</svg>
