<svg width="34" height="34" viewBox="0 0 34 34" fill="none" xmlns="http://www.w3.org/2000/svg">
<mask id="path-1-inside-1_1_476" fill="white">
<path d="M0.713214 16.641C0.71243 19.4712 1.45193 22.2347 2.85808 24.6704L0.578735 32.9927L9.09552 30.7595C11.4512 32.0419 14.0905 32.7138 16.7725 32.714H16.7796C25.6336 32.714 32.841 25.5093 32.8448 16.6537C32.8465 12.3625 31.1769 8.32737 28.1434 5.29156C25.1105 2.256 21.0768 0.583379 16.7789 0.581421C7.92387 0.581421 0.717 7.78581 0.713344 16.641"/>
</mask>
<path d="M0.713214 16.641C0.71243 19.4712 1.45193 22.2347 2.85808 24.6704L0.578735 32.9927L9.09552 30.7595C11.4512 32.0419 14.0905 32.7138 16.7725 32.714H16.7796C25.6336 32.714 32.841 25.5093 32.8448 16.6537C32.8465 12.3625 31.1769 8.32737 28.1434 5.29156C25.1105 2.256 21.0768 0.583379 16.7789 0.581421C7.92387 0.581421 0.717 7.78581 0.713344 16.641" fill="url(#paint0_linear_1_476)"/>
<path d="M2.85808 24.6704L3.34032 24.8025L3.39545 24.6012L3.2911 24.4204L2.85808 24.6704ZM0.578735 32.9927L0.0964955 32.8606L-0.132314 33.696L0.70555 33.4763L0.578735 32.9927ZM9.09552 30.7595L9.33459 30.3204L9.16047 30.2256L8.96871 30.2759L9.09552 30.7595ZM16.7725 32.714L16.7725 33.214H16.7725V32.714ZM32.8448 16.6537L33.3448 16.6539V16.6539L32.8448 16.6537ZM28.1434 5.29156L27.7897 5.64496L27.7897 5.64497L28.1434 5.29156ZM16.7789 0.581421L16.7792 0.0814209H16.7789V0.581421ZM0.713214 16.641L0.213214 16.6409C0.212406 19.5585 0.974836 22.4083 2.42506 24.9204L2.85808 24.6704L3.2911 24.4204C1.92903 22.061 1.21245 19.3839 1.21321 16.6411L0.713214 16.641ZM2.85808 24.6704L2.37584 24.5383L0.0964955 32.8606L0.578735 32.9927L1.06098 33.1247L3.34032 24.8025L2.85808 24.6704ZM0.578735 32.9927L0.70555 33.4763L9.22234 31.2432L9.09552 30.7595L8.96871 30.2759L0.451921 32.509L0.578735 32.9927ZM9.09552 30.7595L8.85646 31.1987C11.2854 32.521 14.0069 33.2138 16.7725 33.214L16.7725 32.714L16.7726 32.214C14.174 32.2139 11.6169 31.5628 9.33459 30.3204L9.09552 30.7595ZM16.7725 32.714V33.214H16.7796V32.714V32.214H16.7725V32.714ZM16.7796 32.714V33.214C25.9097 33.214 33.3409 25.7855 33.3448 16.6539L32.8448 16.6537L32.3448 16.6535C32.3411 25.233 25.3575 32.214 16.7796 32.214V32.714ZM32.8448 16.6537L33.3448 16.6539C33.3465 12.2301 31.6243 8.06775 28.4971 4.93814L28.1434 5.29156L27.7897 5.64497C30.7295 8.58699 32.3464 12.4949 32.3448 16.6535L32.8448 16.6537ZM28.1434 5.29156L28.4971 4.93816C25.3703 1.8087 21.2095 0.0834397 16.7792 0.081421L16.7789 0.581421L16.7787 1.08142C20.9441 1.08332 24.8506 2.7033 27.7897 5.64496L28.1434 5.29156ZM16.7789 0.581421V0.0814209C7.64778 0.0814209 0.217114 7.50956 0.213344 16.6408L0.713344 16.641L1.21334 16.6412C1.21689 8.06205 8.19995 1.08142 16.7789 1.08142V0.581421Z" fill="#D5D5D5" mask="url(#path-1-inside-1_1_476)"/>
<path d="M16.7822 0.25C21.0306 0.251863 25.0245 1.85353 28.084 4.76953L28.377 5.05566C31.4718 8.15323 33.1753 12.2696 33.1738 16.6484C33.17 25.6829 25.8157 33.035 16.7822 33.0352H16.7744C14.0314 33.0341 11.3353 32.3462 8.94141 31.041L8.85449 30.9932L8.75879 31.0186L0.355469 33.2217L2.60254 25.0186L2.62988 24.918L2.57715 24.8281C1.14292 22.3433 0.388755 19.524 0.389648 16.6357C0.393193 7.74227 7.51853 0.479753 16.3594 0.254883L16.7822 0.25ZM16.7871 2.55957C9.01938 2.55957 2.70214 8.87449 2.69922 16.6367C2.69818 19.2962 3.44261 21.8871 4.85254 24.1289L5.12305 24.5576L3.75488 29.5547L3.64062 29.9727L4.05957 29.8623L9.19336 28.5156L9.6084 28.7627C11.6352 29.9653 13.9405 30.6374 16.3027 30.7178L16.7764 30.7256H16.7822C24.5437 30.7254 30.8606 24.4102 30.8643 16.6484C30.8652 12.8871 29.4015 9.34895 26.7432 6.68848C24.1675 4.11131 20.7683 2.65434 17.1387 2.56445L16.7871 2.55957Z" fill="url(#paint1_linear_1_476)" stroke="#D5D5D5" stroke-width="0.5"/>
<path d="M10.92 9.12836C11.0596 9.12836 11.1971 9.12825 11.3292 9.12933L11.7062 9.13812C11.8578 9.14434 11.9557 9.15153 12.0538 9.20844C12.1503 9.26445 12.2806 9.39072 12.424 9.70941C12.6065 10.1154 12.8994 10.8298 13.1613 11.4741C13.4182 12.1064 13.6531 12.6895 13.7111 12.8051C13.7992 12.982 13.8329 13.1347 13.7452 13.31C13.637 13.5265 13.5788 13.659 13.4796 13.8022L13.3634 13.9526C13.1396 14.2137 12.9313 14.4877 12.7531 14.6655C12.6553 14.7626 12.5068 14.908 12.4347 15.102C12.3537 15.3198 12.3802 15.5587 12.5314 15.8178V15.8168C12.7781 16.2403 13.6281 17.6287 14.8937 18.7573C16.5143 20.2021 17.9003 20.6615 18.2921 20.8578V20.8588C18.5164 20.9711 18.7352 21.0393 18.9503 21.0131C19.1191 20.9925 19.2587 20.9173 19.379 20.811L19.4933 20.6948C19.7034 20.4547 20.3484 19.6978 20.6993 19.2231L20.8292 19.0395C20.9411 18.8716 21.0225 18.8429 21.0792 18.8364C21.1213 18.8316 21.1699 18.8363 21.2325 18.851L21.4718 18.9272C21.6473 18.9911 22.2388 19.2696 22.8566 19.5678C23.4663 19.8622 24.0804 20.1656 24.2872 20.269C24.5094 20.38 24.6642 20.4487 24.7941 20.52C24.859 20.5556 24.902 20.5841 24.9308 20.6069L24.9816 20.6586C24.9753 20.6481 24.9921 20.6808 25.0011 20.7953C25.009 20.8963 25.0085 21.0333 24.9943 21.1987C24.9657 21.5287 24.8838 21.9585 24.7179 22.4233C24.5735 22.8279 24.1222 23.2666 23.5704 23.6235C23.0219 23.9782 22.4469 24.2054 22.1241 24.2348C21.7242 24.2712 21.3932 24.352 20.7159 24.2612C20.0318 24.1694 18.9963 23.9007 17.2482 23.2114C13.1034 21.5769 10.4807 17.3205 10.2531 17.017H10.254C10.1527 16.8815 9.73827 16.3319 9.34973 15.5668C8.95939 14.7981 8.60566 13.8332 8.60559 12.8666C8.60559 10.9257 9.61493 9.98293 9.99524 9.56781C10.3208 9.21239 10.7001 9.12836 10.92 9.12836Z" fill="white" stroke="#D5D5D5" stroke-width="0.5"/>
<defs>
<linearGradient id="paint0_linear_1_476" x1="16.7118" y1="32.9927" x2="16.7118" y2="0.581421" gradientUnits="userSpaceOnUse">
<stop stop-color="#1FAF38"/>
<stop offset="1" stop-color="#60D669"/>
</linearGradient>
<linearGradient id="paint1_linear_1_476" x1="16.7119" y1="33.5735" x2="16.7119" y2="0" gradientUnits="userSpaceOnUse">
<stop stop-color="#F9F9F9"/>
<stop offset="1" stop-color="white"/>
</linearGradient>
</defs>
</svg>
