<svg width="36" height="36" viewBox="0 0 36 36" fill="none" xmlns="http://www.w3.org/2000/svg">
<path d="M25.2 14.4C25.2 16.3096 24.4415 18.1409 23.0912 19.4912C21.741 20.8414 19.9096 21.6 18 21.6C16.0905 21.6 14.2591 20.8414 12.9089 19.4912C11.5586 18.1409 10.8 16.3096 10.8 14.4C10.8 12.4904 11.5586 10.6591 12.9089 9.30883C14.2591 7.95857 16.0905 7.2 18 7.2C19.9096 7.2 21.741 7.95857 23.0912 9.30883C24.4415 10.6591 25.2 12.4904 25.2 14.4Z" fill="#ACD140"/>
<path fill-rule="evenodd" clip-rule="evenodd" d="M17.2656 35.9856C7.6653 35.6004 0 27.6948 0 18C0 8.0586 8.0586 0 18 0C27.9414 0 36 8.0586 36 18C36 27.9414 27.9414 36 18 36H17.7534C17.5902 36 17.4276 35.9952 17.2656 35.9856ZM6.4494 29.358C6.31482 28.9715 6.26901 28.5597 6.31537 28.1531C6.36174 27.7465 6.49908 27.3555 6.71722 27.0092C6.93536 26.663 7.22868 26.3703 7.57541 26.1529C7.92214 25.9355 8.31339 25.799 8.7201 25.7535C15.7365 24.9768 20.3067 25.047 27.2889 25.7697C27.6962 25.8121 28.0884 25.9469 28.4357 26.1638C28.7829 26.3807 29.0762 26.674 29.293 27.0213C29.5098 27.3687 29.6445 27.7609 29.6868 28.1682C29.7291 28.5755 29.6779 28.987 29.5371 29.3715C32.5297 26.3439 34.2056 22.257 34.2 18C34.2 9.0531 26.9469 1.8 18 1.8C9.0531 1.8 1.8 9.0531 1.8 18C1.8 22.4244 3.5739 26.4348 6.4494 29.358Z" fill="#ACD140"/>
</svg>
