<svg width="36" height="36" viewBox="0 0 36 36" fill="none" xmlns="http://www.w3.org/2000/svg">
<path d="M0.990541 0.05682C1.16496 0.00524691 1.34783 -0.0114513 1.52871 0.00767922C1.70959 0.0268098 1.88492 0.081394 2.04469 0.168314C2.20447 0.255233 2.34555 0.372784 2.45988 0.51425C2.57421 0.655716 2.65954 0.818324 2.71101 0.992783L3.72631 4.43203H30.7794C34.176 4.43203 36.7696 7.60175 35.7913 10.9118L32.7361 21.2498C32.0864 23.4522 30.0207 24.9235 27.7243 24.9235H10.8223C8.5259 24.9235 6.46207 23.4522 5.81044 21.2498L0.056467 1.77737C-0.0471951 1.42558 -0.00706187 1.04704 0.168058 0.724822C0.343179 0.4026 0.638979 0.161175 0.990541 0.05682ZM7.38323 31.8463C7.38323 30.7447 7.82083 29.6882 8.59976 28.9092C9.37869 28.1303 10.4351 27.6926 11.5367 27.6926C12.6383 27.6926 13.6948 28.1303 14.4737 28.9092C15.2526 29.6882 15.6902 30.7447 15.6902 31.8463C15.6902 32.9479 15.2526 34.0044 14.4737 34.7834C13.6948 35.5624 12.6383 36 11.5367 36C10.4351 36 9.37869 35.5624 8.59976 34.7834C7.82083 34.0044 7.38323 32.9479 7.38323 31.8463ZM22.1512 31.8463C22.1512 31.3008 22.2586 30.7607 22.4674 30.2568C22.6761 29.7528 22.982 29.2949 23.3677 28.9092C23.7534 28.5235 24.2113 28.2176 24.7152 28.0088C25.2191 27.8001 25.7592 27.6926 26.3047 27.6926C26.8501 27.6926 27.3902 27.8001 27.8942 28.0088C28.3981 28.2176 28.856 28.5235 29.2417 28.9092C29.6273 29.2949 29.9333 29.7528 30.142 30.2568C30.3508 30.7607 30.4582 31.3008 30.4582 31.8463C30.4582 32.9479 30.0206 34.0044 29.2417 34.7834C28.4627 35.5624 27.4063 36 26.3047 36C25.2031 36 24.1467 35.5624 23.3677 34.7834C22.5888 34.0044 22.1512 32.9479 22.1512 31.8463Z" fill="#ACD140"/>
</svg>
