<svg width="36" height="32" viewBox="0 0 36 32" fill="none" xmlns="http://www.w3.org/2000/svg">
<path d="M17.1988 31.7613C17.4327 31.9166 17.7124 32 17.9991 32C18.2858 32 18.5654 31.9166 18.7994 31.7613L18 30.7027L18.8012 31.7613L18.816 31.751L18.8548 31.725L19.0025 31.6247C19.1305 31.5382 19.312 31.4119 19.5471 31.2459C22.2904 29.3059 24.88 27.1819 27.2954 24.8908C29.4148 22.8705 31.5692 20.5094 33.2012 18.0048C34.8258 15.514 36 12.7741 36 10.0273C36 6.76671 34.92 4.21882 33.0092 2.48908C31.1077 0.769731 28.5415 0 25.8462 0C22.6615 0 19.8498 1.44087 18 3.66184C16.1502 1.44087 13.3366 0 10.1538 0C4.46769 0 0 4.56476 0 10.0273C0 12.7741 1.176 15.5122 2.79877 18.0048C4.43077 20.5094 6.58523 22.8705 8.70462 24.8926C11.2796 27.3335 14.0522 29.5842 16.9975 31.6247L17.1452 31.725L17.184 31.751L17.1988 31.7613Z" fill="#ACD140"/>
</svg>
